<svg viewBox="0 0 84 58" fill="none" xmlns="http://www.w3.org/2000/svg">
<rect x="0.5" y="0.5" width="83" height="57" rx="3.5" fill="white" stroke="#F3F3F3"/>
<path d="M63.6456 49.182C64.2587 49.1819 64.7096 48.9396 65.0069 48.5541V49.0746H65.9454V43.0717H65.0069V45.3109C64.7096 44.9256 64.2585 44.684 63.6456 44.684C62.4366 44.684 61.4884 45.6253 61.4884 46.933C61.4884 48.2416 62.4366 49.182 63.6456 49.182ZM38.5226 49.182C38.9292 49.182 39.3981 49.057 39.6954 48.851L39.4249 48.0531C39.1452 48.214 38.8384 48.2953 38.5948 48.2953C38.1262 48.2952 37.9737 48.0072 37.9737 47.5775V45.6429H39.5069V44.7914H37.9737V43.4916H37.0255V44.7914H36.1515V45.6429H37.0255V47.5961C37.0255 48.5898 37.4139 49.1819 38.5226 49.182ZM19.5977 46.6996C19.5979 45.9563 20.0134 45.5619 20.6544 45.5619C21.2769 45.5619 21.5919 45.9647 21.5919 46.6908V49.0746H22.5392V46.6996C22.5393 45.9563 22.9724 45.5619 23.5948 45.5619C24.2349 45.5619 24.5411 45.9647 24.5411 46.6908V49.0746H25.4893V46.3861C25.4893 45.3739 24.8399 44.6932 23.7931 44.684C23.2428 44.6747 22.6749 44.8447 22.2774 45.4457C21.9801 44.9708 21.5113 44.684 20.8526 44.684C20.3922 44.684 19.942 44.8182 19.5899 45.3197V44.7914H18.6515V49.0746H19.5977V46.6996ZM28.4747 49.182C29.088 49.182 29.5397 48.9397 29.837 48.5541V49.0746H30.7745V44.7914H29.837V45.3109C29.5397 44.9254 29.0878 44.684 28.4747 44.684C27.2659 44.6842 26.3185 45.6255 26.3185 46.933C26.3185 48.2414 27.266 49.1818 28.4747 49.182ZM33.5528 49.182C34.7976 49.182 35.5194 48.5996 35.5196 47.7845C35.5196 47.0318 34.9513 46.6376 34.0128 46.5033L33.5714 46.4398C33.1656 46.3865 32.8399 46.3061 32.8399 46.0189C32.84 45.7052 33.1471 45.5179 33.6612 45.5179C34.2114 45.518 34.7438 45.7241 35.005 45.8851L35.4112 45.1322C34.96 44.8368 34.338 44.684 33.6524 44.684C32.5603 44.6841 31.8575 45.2039 31.8575 46.0551C31.8576 46.7534 32.3807 47.1843 33.3448 47.3187L33.7882 47.3812C34.3022 47.453 34.545 47.5875 34.545 47.8295C34.5449 48.1606 34.2016 48.349 33.5616 48.349C32.9124 48.3489 32.4439 48.1428 32.128 47.9008L31.6856 48.6263C32.1998 49.0027 32.8497 49.182 33.5528 49.182ZM42.4923 49.182C43.1415 49.182 43.7365 49.0211 44.2599 48.5824L43.8009 47.892C43.4395 48.1781 42.9786 48.3402 42.546 48.3402C41.9421 48.3401 41.3922 48.0615 41.2569 47.2904H44.4581C44.4674 47.1747 44.4766 47.0579 44.4767 46.933C44.4674 45.5977 43.6377 44.684 42.4298 44.684C41.1661 44.684 40.2823 45.5976 40.2823 46.933C40.2824 48.2948 41.2019 49.1819 42.4923 49.182ZM46.38 46.6732C46.38 45.9646 46.6867 45.5707 47.2999 45.5707C47.4897 45.5707 47.6878 45.5972 47.8858 45.6781L48.1749 44.8002C47.9674 44.7193 47.6968 44.684 47.5069 44.684C46.9662 44.684 46.6138 44.9347 46.3712 45.3109V44.7914H45.4425V49.0746H46.38V46.6732ZM50.755 49.182C51.4043 49.182 51.8371 49.0384 52.3058 48.6713L51.8556 47.9183C51.5036 48.1695 51.1343 48.304 50.7276 48.3041C49.9791 48.2948 49.4289 47.7575 49.4288 46.933C49.4288 46.1084 49.9791 45.5711 50.7276 45.5619C51.1343 45.562 51.5036 45.6964 51.8556 45.9476L52.3058 45.1947C51.837 44.8275 51.4044 44.684 50.755 44.684C49.3654 44.6841 48.4552 45.6336 48.4552 46.933L48.4659 47.1722C48.571 48.3472 49.4523 49.1819 50.755 49.182ZM54.9405 49.182C55.5538 49.182 56.0045 48.9397 56.3028 48.5541V49.0746H57.2403V44.7914H56.3028V45.3109C56.0044 44.9254 55.5537 44.684 54.9405 44.684C53.7317 44.6841 52.7843 45.6254 52.7843 46.933C52.7843 48.2415 53.7317 49.1819 54.9405 49.182ZM59.4142 46.6732C59.4142 45.9646 59.7209 45.5707 60.3341 45.5707C60.524 45.5707 60.7228 45.5971 60.921 45.6781L61.2101 44.8002C61.0027 44.7192 60.732 44.684 60.5421 44.684C60.0013 44.684 59.649 44.9348 59.4054 45.3109V44.7914H58.4757V49.0746H59.4142V46.6732ZM41.2647 46.556C41.365 45.9378 41.7434 45.5179 42.4112 45.5179C43.015 45.518 43.4028 45.8938 43.502 46.556H41.2647ZM28.5919 48.3041C27.7804 48.3041 27.2834 47.6857 27.2833 46.933C27.2833 46.1802 27.7804 45.5619 28.5919 45.5619C29.3672 45.5619 29.8907 46.1535 29.8907 46.933C29.8907 47.7124 29.3672 48.3041 28.5919 48.3041ZM55.0577 48.3041C54.2463 48.3041 53.7492 47.6857 53.7491 46.933C53.7491 46.1802 54.2462 45.5619 55.0577 45.5619C55.8329 45.562 56.3565 46.1536 56.3565 46.933C56.3565 47.7123 55.8329 48.3039 55.0577 48.3041ZM63.7618 48.3041C62.9504 48.304 62.4543 47.6857 62.4542 46.933C62.4542 46.1802 62.9504 45.562 63.7618 45.5619C64.5382 45.5619 65.0606 46.1535 65.0606 46.933C65.0606 47.7124 64.5382 48.3041 63.7618 48.3041Z" fill="#231F20"/>
<path d="M49.3087 37.5138H35.1003V12.1486H49.3087V37.5138Z" fill="#FF5F00"/>
<path d="M36.0017 24.8317C36.0017 19.6863 38.4269 15.1029 42.2035 12.1491C39.4418 9.98921 35.9562 8.70003 32.1682 8.70003C23.2004 8.70003 15.931 15.9223 15.931 24.8317C15.931 33.7411 23.2004 40.9634 32.1682 40.9634C35.9562 40.9634 39.4418 39.6743 42.2035 37.5143C38.4269 34.5606 36.0017 29.9772 36.0017 24.8317Z" fill="#EB001B"/>
<path d="M68.4771 24.8317C68.4771 33.7411 61.2077 40.9634 52.2399 40.9634C48.4519 40.9634 44.9664 39.6743 42.2036 37.5143C45.9813 34.5606 48.4065 29.9772 48.4065 24.8317C48.4065 19.6863 45.9813 15.1029 42.2036 12.1491C44.9664 9.98921 48.4519 8.70003 52.2399 8.70003C61.2077 8.70003 68.4771 15.9223 68.4771 24.8317Z" fill="#F79E1B"/>
</svg>
