<svg viewBox="0 0 84 58" fill="none" xmlns="http://www.w3.org/2000/svg">
<rect x="0.5" y="0.5" width="83" height="57" rx="3.5" fill="white" stroke="#F3F3F3"/>
<path d="M37.2957 39.7782H31.7032L35.2011 19.4772H40.7933L37.2957 39.7782Z" fill="#15195A"/>
<path d="M57.5686 19.9735C56.4655 19.5627 54.7159 19.1092 52.5525 19.1092C47.0298 19.1092 43.1407 21.8734 43.1168 25.8255C43.071 28.7413 45.9013 30.3608 48.0182 31.333C50.1818 32.3265 50.9173 32.9749 50.9173 33.8605C50.8953 35.2205 49.169 35.8474 47.5588 35.8474C45.3261 35.8474 44.1297 35.5242 42.3116 34.7675L41.5752 34.4432L40.7926 39.0003C42.1043 39.5612 44.5208 40.0589 47.0298 40.0808C52.8978 40.0808 56.7181 37.3593 56.7634 33.1477C56.7857 30.8367 55.2911 29.066 52.069 27.619C50.113 26.6901 48.9151 26.0637 48.9151 25.1133C48.9381 24.2493 49.9283 23.3644 52.1363 23.3644C53.9544 23.321 55.2902 23.7312 56.3022 24.1417L56.808 24.3573L57.5686 19.9735Z" fill="#15195A"/>
<path d="M71.905 19.4772L76.4168 39.778H71.239C71.239 39.778 70.7317 37.4461 70.5711 36.733H63.3914C63.1837 37.2728 62.219 39.7742 62.2175 39.778H56.3494L64.656 21.1617C65.2315 19.8444 66.2451 19.4773 67.5789 19.4772H71.905ZM67.9705 24.9625C67.6943 25.7183 67.2119 26.9492 67.2351 26.9059C67.2351 26.9059 65.4623 31.4203 65.0017 32.5865H69.6502C69.4202 31.5716 68.3611 26.7115 68.3611 26.7115L67.9705 24.9625Z" fill="#15195A"/>
<path d="M16.4695 19.4772C17.6889 19.5199 18.6786 19.887 19.0007 21.1832L20.9558 30.5114L20.9568 30.5133L21.5554 33.3209L27.032 19.4772H32.946L24.155 39.7565H18.2419L13.2556 22.1168C11.536 21.1733 9.57375 20.414 7.37961 19.8873L7.47141 19.4772H16.4695Z" fill="#15195A"/>
</svg>
